<?xml version="1.0" encoding="UTF-8" standalone="yes"?><svg xmlns="http://www.w3.org/2000/svg" xmlns:xlink="http://www.w3.org/1999/xlink" version="1.2" baseProfile="tiny" x="0" y="0" width="256" height="256" viewBox="0 0 256 256"><defs><linearGradient id="wps{f2995cfc-4a64-4421-964c-ead6e1748188}_solid@Accent1_0.00@Accent1_0.00" x1="0" y1="0.5" x2="1" y2="0.5" spreadMethod="pad" gradientUnits="userSpaceOnUse"><stop offset="0" stop-color="#5b9bd5" stop-opacity="1"/><stop offset="1" stop-color="#5b9bd5" stop-opacity="1"/></linearGradient><linearGradient id="wps{6a36b539-12f9-4c60-977b-8fff75d5c8eb}@Accent1_0.00@Accent1_0.40" x1="0" y1="0.5" x2="1" y2="0.5" spreadMethod="pad" gradientUnits="objectBoundingBox" gradientTransform="matrix(-0.707107,-0.707107,0.707107,-0.707107,0.5,1.20711)"><stop offset="0.28" stop-color="#1580fa" stop-opacity="1"/><stop offset="0.99999" stop-color="#73b3fc" stop-opacity="1"/></linearGradient></defs><defs/><defs/><defs/><defs/><defs/><defs/><g transform="matrix(0.340426,0,0,0.340426,-46.2979,-49.0213)"><g id="Page-1" fill="none" fill-rule="evenodd" stroke="none" stroke-width="1"><g id="页面"/><path id="合并形状" fill="url(#wps{6a36b539-12f9-4c60-977b-8fff75d5c8eb}@Accent1_0.00@Accent1_0.40)" d="M 404.638 224 C 418.407 177.736 461.264 144 512 144 C 562.736 144 605.593 177.736 619.362 224 L 768 224 C 803.346 224 832 252.654 832 288 L 832 832 C 832 867.346 803.346 896 768 896 L 256 896 C 220.654 896 192 867.346 192 832 L 192 288 C 192 252.654 220.654 224 256 224 L 404.638 224 M 512 272 C 529.673 272 544 257.673 544 240 C 544 222.327 529.673 208 512 208 C 494.327 208 480 222.327 480 240 C 480 257.673 494.327 272 512 272 M 352 384 C 334.327 384 320 398.327 320 416 C 320 433.673 334.327 448 352 448 L 672 448 C 689.673 448 704 433.673 704 416 C 704 398.327 689.673 384 672 384 L 352 384 M 352 528 C 334.327 528 320 542.327 320 560 C 320 577.673 334.327 592 352 592 L 672 592 C 689.673 592 704 577.673 704 560 C 704 542.327 689.673 528 672 528 L 352 528 M 352 672 C 334.327 672 320 686.327 320 704 C 320 721.673 334.327 736 352 736 L 512 736 C 529.673 736 544 721.673 544 704 C 544 686.327 529.673 672 512 672 L 352 672"/></g></g></svg>
