<?xml version="1.0" encoding="UTF-8" standalone="yes"?><svg xmlns="http://www.w3.org/2000/svg" xmlns:xlink="http://www.w3.org/1999/xlink" version="1.2" baseProfile="tiny" x="0" y="0" width="256" height="256" viewBox="0 0 256 256"><defs><linearGradient id="wps{b3d5b217-1a3b-4a8a-9d88-924705a7aa4d}_solid@Accent1_0.00@Accent1_0.00" x1="0" y1="0.5" x2="1" y2="0.5" spreadMethod="pad" gradientUnits="userSpaceOnUse"><stop offset="0" stop-color="#5b9bd5" stop-opacity="1"/><stop offset="1" stop-color="#5b9bd5" stop-opacity="1"/></linearGradient><linearGradient id="wps{8a650c00-ffff-4804-aebf-2ba58df47656}@Accent1_0.00@Accent1_0.40" x1="0" y1="0.5" x2="1" y2="0.5" spreadMethod="pad" gradientUnits="objectBoundingBox" gradientTransform="matrix(-0.707107,-0.707107,0.707107,-0.707107,0.5,1.20711)"><stop offset="0.28" stop-color="#1580fa" stop-opacity="1"/><stop offset="0.99999" stop-color="#73b3fc" stop-opacity="1"/></linearGradient></defs><defs/><defs/><defs/><defs/><defs/><defs/><g transform="matrix(9.11945,0,0,9.11945,-18.2959,-18.1955)"><g id="Page-1" fill="none" fill-rule="evenodd" stroke="none" stroke-width="1"><g id="分组-183" fill="#262626" fill-rule="nonzero" transform="matrix(1,0,0,1,2,-126)"><g id="gongsi" transform="matrix(1,0,0,1,0,128)"><path id="形状" fill="url(#wps{8a650c00-ffff-4804-aebf-2ba58df47656}@Accent1_0.00@Accent1_0.40)" d="M 16.1219 5.25625 C 15.9063 5.0875 15.5156 5.03125 15.2594 5.12812 L 2.475 10.0625 C 2.21875 10.1625 2.00937 10.4688 2.00937 10.7438 L 2 27.55 C 2 27.825 2.225 28.05 2.5 28.05 L 19.8 28.05 C 20.075 28.05 20.3 27.825 20.3 27.55 L 20.3 9.00313 C 20.3 8.72813 20.1219 8.36562 19.9063 8.19688 L 16.1219 5.25625 M 13.4031 20.2312 C 13.4031 20.5063 13.1844 20.7844 12.9187 20.85 L 5.73438 22.6 C 5.46563 22.6656 5.25 22.4937 5.25 22.2188 L 5.25 21.4875 C 5.25 21.2125 5.46875 20.9344 5.73438 20.8687 L 12.9187 19.1187 C 13.1875 19.0531 13.4031 19.225 13.4031 19.5 L 13.4031 20.2312 M 13.4031 16.7688 C 13.4031 17.0437 13.1844 17.3219 12.9187 17.3875 L 5.73438 19.1375 C 5.46563 19.2031 5.25 19.0313 5.25 18.7563 L 5.25 18.025 C 5.25 17.75 5.46875 17.4719 5.73438 17.4063 L 12.9187 15.6563 C 13.1875 15.5906 13.4031 15.7625 13.4031 16.0375 L 13.4031 16.7688 M 13.4031 13.3063 C 13.4031 13.5813 13.1844 13.8594 12.9187 13.925 L 5.73438 15.675 C 5.46563 15.7406 5.25 15.5687 5.25 15.2937 L 5.25 14.5625 C 5.25 14.2875 5.46875 14.0094 5.73438 13.9437 L 12.9187 12.1937 C 13.1875 12.1281 13.4031 12.3 13.4031 12.575 L 13.4031 13.3063"/><path id="形状" fill="url(#wps{8a650c00-ffff-4804-aebf-2ba58df47656}@Accent1_0.00@Accent1_0.40)" d="M 16.1219 5.25625 C 15.9063 5.0875 15.5156 5.03125 15.2594 5.12812 L 2.475 10.0625 C 2.21875 10.1625 2.00937 10.4688 2.00937 10.7438 L 2 27.55 C 2 27.825 2.225 28.05 2.5 28.05 L 19.8 28.05 C 20.075 28.05 20.3 27.825 20.3 27.55 L 20.3 9.00313 C 20.3 8.72813 20.1219 8.36562 19.9063 8.19688 L 16.1219 5.25625 M 13.4031 20.2312 C 13.4031 20.5063 13.1844 20.7844 12.9187 20.85 L 5.73438 22.6 C 5.46563 22.6656 5.25 22.4937 5.25 22.2188 L 5.25 21.4875 C 5.25 21.2125 5.46875 20.9344 5.73438 20.8687 L 12.9187 19.1187 C 13.1875 19.0531 13.4031 19.225 13.4031 19.5 L 13.4031 20.2312 M 13.4031 16.7688 C 13.4031 17.0437 13.1844 17.3219 12.9187 17.3875 L 5.73438 19.1375 C 5.46563 19.2031 5.25 19.0313 5.25 18.7563 L 5.25 18.025 C 5.25 17.75 5.46875 17.4719 5.73438 17.4063 L 12.9187 15.6563 C 13.1875 15.5906 13.4031 15.7625 13.4031 16.0375 L 13.4031 16.7688 M 13.4031 13.3063 C 13.4031 13.5813 13.1844 13.8594 12.9187 13.925 L 5.73438 15.675 C 5.46563 15.7406 5.25 15.5687 5.25 15.2937 L 5.25 14.5625 C 5.25 14.2875 5.46875 14.0094 5.73438 13.9437 L 12.9187 12.1937 C 13.1875 12.1281 13.4031 12.3 13.4031 12.575 L 13.4031 13.3063"/><path id="形状" fill="url(#wps{8a650c00-ffff-4804-aebf-2ba58df47656}@Accent1_0.00@Accent1_0.40)" d="M 27.075 26.1031 C 26.9844 26.1031 26.9 26.1156 26.8156 26.1375 C 26.7594 26.1156 26.6969 26.1031 26.6313 26.1031 L 24.7969 26.1031 C 24.5219 26.1031 24.2969 25.8844 24.2969 25.6156 L 24.2969 3.775 C 24.2969 3.50625 24.1156 3.15625 23.8969 2.99688 L 20.0531 0.1875 C 19.8344 0.028125 19.4406 -0.034375 19.1781 0.05 L 7.44375 3.21875 C 7.18125 3.30313 6.96875 3.59063 6.96875 3.85938 L 6.96875 6.16563 L 6.97813 6.16563 C 6.97813 6.70313 7.425 7.14063 7.97813 7.14063 C 8.53125 7.14063 8.97813 6.70313 8.97813 6.16563 L 8.97813 5.16563 C 9.02187 4.92812 9.2125 4.69688 9.44375 4.62188 L 18.8156 2.21875 C 19.0781 2.13437 19.4688 2.19687 19.6906 2.35625 L 21.9 3.96875 C 22.1187 4.12812 22.3 4.48125 22.3 4.74688 L 22.3 27.5594 C 22.3 27.8281 22.525 28.0469 22.8 28.0469 L 26.6344 28.0469 C 26.6969 28.0469 26.7563 28.0344 26.8125 28.0156 C 26.8969 28.0375 26.9875 28.05 27.0781 28.05 C 27.6313 28.05 28.0781 27.6125 28.0781 27.075 C 28.075 26.5406 27.6281 26.1031 27.075 26.1031 M 2.64063 28.05 L 1.00625 28.05 C 0.45625 28.05 0.00625 27.6 0.00625 27.05 C 0.00625 26.5 0.45625 26.05 1.00625 26.05 L 2.64375 26.05 C 3.19375 26.05 3.64375 26.5 3.64375 27.05 C 3.64063 27.6 3.19062 28.05 2.64063 28.05"/></g></g><g id="IIIII-Copy-40" transform="matrix(1,0,0,1,0,-128)"/></g></g></svg>
